<svg id="Group_11" data-name="Group 11" xmlns="http://www.w3.org/2000/svg" width="19.267" height="19.267" viewBox="0 0 19.267 19.267">
  <path id="Path_28" data-name="Path 28" d="M950.233,47.914h-11.82a3.726,3.726,0,0,0-3.722,3.723V63.458a3.726,3.726,0,0,0,3.722,3.723h11.82a3.728,3.728,0,0,0,3.724-3.723V51.637A3.728,3.728,0,0,0,950.233,47.914Zm1.069,2.222.425,0V53.4l-3.254.012-.011-3.265Zm-9.728,5.435a3.384,3.384,0,1,1-.642,1.977A3.389,3.389,0,0,1,941.574,55.571Zm10.507,7.887a1.849,1.849,0,0,1-1.848,1.846h-11.82a1.848,1.848,0,0,1-1.846-1.846V55.571h2.877a5.269,5.269,0,1,0,9.76,0h2.878Z" transform="translate(-934.69 -47.914)"/>
</svg>
