<svg xmlns="http://www.w3.org/2000/svg" width="147.134" height="147.134" viewBox="0 0 147.134 147.134">
  <g id="Component_4_1" data-name="Component 4 – 1" transform="translate(1.5 1.5)">
    <rect id="Rectangle_12" data-name="Rectangle 12" width="144.134" height="144.134" fill="none" stroke="#000" stroke-miterlimit="10" stroke-width="3"/>
    <g id="Group_19" data-name="Group 19" transform="translate(-2329.897 -1948.118)">
      <g id="Group_17" data-name="Group 17">
        <path id="Path_29" data-name="Path 29" d="M2382.5,1988.413l0-.007h0Z"/>
        <path id="Path_30" data-name="Path 30" d="M2423.46,2010.692v-.005h0a21.69,21.69,0,0,0-7.255-16.1,20.528,20.528,0,0,0-13.792-4.877,23.567,23.567,0,0,0-7.917,1.338,16.2,16.2,0,0,0-4.6,2.5c0-.035,0-.072,0-.107v-.022a10.777,10.777,0,0,0-.324-2.635h0a7.153,7.153,0,0,0-1.97-3.284h0a7.324,7.324,0,0,0-1.412-1.1h0a3.765,3.765,0,0,0-1.489-.539l-.25-.025-.024,0-.225.159h0a5.373,5.373,0,0,0-1.7,2.413h0a8.366,8.366,0,0,0-.6,2.727h0v.152h0v.009h0a9.507,9.507,0,0,0,1.325,4.3h0c.2.4.375.7.512.923a11.157,11.157,0,0,1-.916,1.107h0a5.369,5.369,0,0,0-.471.567,1.742,1.742,0,0,0-.31.778h0c-.544,4.484-1,8.959-1.545,13.425h0v0h0v0h0a3.648,3.648,0,0,0-.027.444,3.165,3.165,0,0,0,.081.732h0a1.818,1.818,0,0,0,.342.728h0a1.137,1.137,0,0,0,.5.34h0a2.191,2.191,0,0,0,.578.109c.162.01.306.011.37.015.324.018.651.035.984.035h.016a4.764,4.764,0,0,0,2.582-.639h0c.037-.023.068-.054.1-.079a14.4,14.4,0,0,0-.21,2.405v0h0v0h0a14.511,14.511,0,0,0,.172,2.223,14.643,14.643,0,0,0,4.083,8.086l0,0,.013.013h0l.044.042.145.144.047.046h0l0,0,.01-.01a17.414,17.414,0,0,0,12.2,4.436h.033a22.343,22.343,0,0,0,9.527-2.211,18.963,18.963,0,0,0,7.783-6.668,21.853,21.853,0,0,0,3.594-11.911v-.011Zm-32.278,15.158a13.4,13.4,0,0,1-1.813-2.245,13.234,13.234,0,0,1-1.93-5.1,13.047,13.047,0,0,1-.156-2,12.683,12.683,0,0,1,2.468-7.539h0a14.325,14.325,0,0,1,11.094-5.551h.027a11.689,11.689,0,0,1,6.42,1.889,11.492,11.492,0,0,0-2.6-.3h-.007a12.087,12.087,0,0,0-8.434,3.532,11.806,11.806,0,0,0-3.6,8.375h0v.009a12.387,12.387,0,0,0,2.775,7.623,21.712,21.712,0,0,0,6.676,5.476A15.749,15.749,0,0,1,2391.182,2025.85Zm13.844,4a22.208,22.208,0,0,1-8.433-6.218,10.912,10.912,0,0,1-2.467-6.73v0a10.336,10.336,0,0,1,3.162-7.323,10.607,10.607,0,0,1,7.4-3.108h0a10.646,10.646,0,0,1,5.891,1.842l1.182,1.456.045-1.928.1,0-.1-.1,0-.042h0a3.409,3.409,0,0,1,.107-.6h0a2.221,2.221,0,0,1,.559-1.031h0a3.759,3.759,0,0,1,1.353-.71h0a5.546,5.546,0,0,1,1.554-.281h.015a1.879,1.879,0,0,1,.208.012c.012.032.023.061.034.1h0a7.107,7.107,0,0,1,.232,1.812v.022h0v.051a3.085,3.085,0,0,1-.179,1.166l0,.005a3.124,3.124,0,0,1-.578.73h0a10.9,10.9,0,0,1-1.357,1.11c-.211.148-.4.27-.525.354h0l-.152.1h0l-.049.03h0l-.4.244-.04.025.1.508,0,.022,0-.022a2.778,2.778,0,0,1,.049.536v0a4.863,4.863,0,0,1-.151,1.128c-.038.154-.076.281-.1.367l-.011.033c-.117.155-.376.5-.724.952-.719.942-1.807,2.355-2.743,3.527-.468.585-.9,1.111-1.22,1.481-.072.082-.136.154-.2.219a13.286,13.286,0,0,1-.864-1.023h0a2.185,2.185,0,0,1-.35-.666h0v0c-.028-.084-.079-.309-.132-.579h0c-.084-.41-.185-.947-.321-1.494a7.424,7.424,0,0,0-.56-1.593h0a4.777,4.777,0,0,0-1.155-1.517,2.086,2.086,0,0,0-1.306-.511h-.006a1.639,1.639,0,0,0-.763.192l0-.008-.058.033,0,0h0l-.057.033,0,.005a3.894,3.894,0,0,0-1.518,1.686,5.675,5.675,0,0,0-.525,2.466,9.49,9.49,0,0,0,3.487,6.951,16.963,16.963,0,0,0,9.2,3.749c-.4.227-.8.443-1.217.642A21.179,21.179,0,0,1,2405.026,2029.854Zm9.615-3.831c-4.85-.276-8.137-1.745-10.212-3.564a8.039,8.039,0,0,1-2.986-5.841v-.008a4.221,4.221,0,0,1,.379-1.822,2.408,2.408,0,0,1,.975-1.085l.111-.028a.63.63,0,0,1,.378.18,3.387,3.387,0,0,1,.78,1.059h0a7.6,7.6,0,0,1,.551,1.762h0c.072.329.134.65.191.933s.107.524.173.736l.129.414v-.1a3.814,3.814,0,0,0,.432.772h0a16.39,16.39,0,0,0,1.125,1.325h0a1.437,1.437,0,0,0,1.034.452h.015a.776.776,0,0,0,.3-.059h0a.927.927,0,0,0,.224-.133h0a4.431,4.431,0,0,0,.541-.543h0c.717-.808,1.939-2.361,3-3.729s1.922-2.512,1.94-2.537h0l.057-.075.005-.008.038-.1v-.005a6.489,6.489,0,0,0,.2-.654,6.329,6.329,0,0,0,.193-1.483h0c0-.1-.006-.208-.014-.314.238-.158.558-.378.9-.641a10.924,10.924,0,0,0,1.053-.906h0a4.493,4.493,0,0,0,.855-1.112l0-.007,0-.006a4.415,4.415,0,0,0,.332-1.871h0a9.133,9.133,0,0,0-.178-1.789h0a4.671,4.671,0,0,0-.2-.72h0a1.809,1.809,0,0,0-.156-.318v0a1.053,1.053,0,0,0-.331-.343h0a2.046,2.046,0,0,0-1.076-.24h0a6.858,6.858,0,0,0-2.018.353h0a5.106,5.106,0,0,0-1.912,1.041h0a3.357,3.357,0,0,0-.789,1.2,13.413,13.413,0,0,0-9.78-4.265h-.026a15.766,15.766,0,0,0-12.307,6.151,14.221,14.221,0,0,0-1.3,2.161c-.234.358-.628.954-1.044,1.505-.208.275-.422.539-.615.749h0a2.5,2.5,0,0,1-.452.411h0a3.315,3.315,0,0,1-1.828.422c-.282,0-.583-.015-.9-.033-.159-.008-.314-.009-.425-.022a.364.364,0,0,1-.014-.046v0a1.725,1.725,0,0,1-.04-.381h0v-.005a2.21,2.21,0,0,1,.016-.266h0v-.005h0l0-.043h0c.542-4.47,1-8.931,1.541-13.383,0-.017,0-.033.064-.128h0c.087-.133.316-.374.617-.708l.014-.017-.014.016a10.538,10.538,0,0,0,1.058-1.39l.247-.389.025-.039-.262-.352.035-.025-.083-.041a9.181,9.181,0,0,1-.665-1.147h0a8.185,8.185,0,0,1-1.167-3.626v-.051h0v-.019a6.886,6.886,0,0,1,.5-2.288h0a4.663,4.663,0,0,1,.953-1.562,2.967,2.967,0,0,1,.618.281h0a6.41,6.41,0,0,1,1.654,1.467h0a5.214,5.214,0,0,1,1.042,1.99h0a9.258,9.258,0,0,1,.285,2.318v.006c0,.509-.031,1.072-.046,1.812l-.038,1.964,1.319-1.456a13.272,13.272,0,0,1,5.335-3.334,22.117,22.117,0,0,1,7.418-1.251h.006a19.071,19.071,0,0,1,12.8,4.5,20.053,20.053,0,0,1,3.412,26.131A16.4,16.4,0,0,1,2414.641,2026.023Z"/>
        <path id="Path_31" data-name="Path 31" d="M2387.425,2000.318l-.066.012c-.016,0-.038,0-.056.006h0a7.377,7.377,0,0,0-.882.114,2.038,2.038,0,0,0-1.142.729h0a2.012,2.012,0,0,0-.482,1.233.832.832,0,0,0,.031.244v.005l.048.1.005.011.062.06.011.012.118.035.022.007.147-.059.018-.007.031-.043.049.024-.037-.04.021-.029,0,0,0-.005a3.152,3.152,0,0,1,.866-.949h0c.384-.312.842-.638,1.292-1.007l.012.014,0-.017h0v-.005l.043-.033.64-.532-.755.125Z"/>
        <path id="Path_32" data-name="Path 32" d="M2409.769,2012.215a1.516,1.516,0,0,1-.06.459h0l-.012.07.052.127.127.053.12-.035a.889.889,0,0,0,.3-.328,1.549,1.549,0,0,0,.206-.66l.007-.153a1.457,1.457,0,0,0-.26-.84c-.142-.209-.3-.362-.4-.488l-.35-.473.064.585C2409.638,2011.161,2409.771,2011.752,2409.769,2012.215Z"/>
      </g>
      <g id="Group_18" data-name="Group 18">
        <path id="Path_33" data-name="Path 33" d="M2367.461,2048.228a4.077,4.077,0,0,1,.705,2.246,3.867,3.867,0,0,1-1.24,2.845,4.156,4.156,0,0,1-2.994,1.2,4.471,4.471,0,0,1-2.461-.727,6.292,6.292,0,0,1-1.989-2.374l-.15-.257,1.711-1.048.172.3a5.224,5.224,0,0,0,1.262,1.626,2.093,2.093,0,0,0,1.326.492,2.459,2.459,0,0,0,1.155-.279,2.007,2.007,0,0,0,.792-.748,1.934,1.934,0,0,0-.128-2.182,10.355,10.355,0,0,0-2.29-2.139,12.407,12.407,0,0,1-2.224-1.968,3.717,3.717,0,0,1-.791-2.289,3.487,3.487,0,0,1,.47-1.819,3.19,3.19,0,0,1,.577-.727,3.775,3.775,0,0,1,.771-.556,3.639,3.639,0,0,1,1.86-.471,3.716,3.716,0,0,1,1.969.535,6.1,6.1,0,0,1,1.9,1.861l.193.257-1.626,1.24-.214-.256A5.619,5.619,0,0,0,2365,2041.7a2.019,2.019,0,0,0-1.048-.279,1.537,1.537,0,0,0-1.135.407,1.369,1.369,0,0,0-.448,1.027,1.943,1.943,0,0,0,.171.748,2.528,2.528,0,0,0,.62.813,3.11,3.11,0,0,0,.45.385q.363.279,1.3.963A10.528,10.528,0,0,1,2367.461,2048.228Z"/>
        <path id="Path_34" data-name="Path 34" d="M2376.039,2039.821l6.759,14.461h-2.2l-2.181-4.557h-5.541l-2.161,4.557h-2.245l6.823-14.461Zm1.476,7.936-1.862-3.936-1.861,3.936Z"/>
        <path id="Path_35" data-name="Path 35" d="M2392.253,2039.864h2.2l-6.31,14.461h-.706l-6.226-14.461h2.2l4.386,10.182Z"/>
        <rect id="Rectangle_13" data-name="Rectangle 13" width="2.033" height="14.461" transform="translate(2396.959 2039.864)"/>
        <path id="Path_36" data-name="Path 36" d="M2417.174,2046.923l-.021.321a7.2,7.2,0,0,1-1.989,5.326,7.114,7.114,0,0,1-5.263,1.968,8.974,8.974,0,0,1-3.572-.663,7.9,7.9,0,0,1-2.76-2.054,7.293,7.293,0,0,1-1.8-4.856,7.478,7.478,0,0,1,1.049-3.829,7.386,7.386,0,0,1,2.823-2.759,8.067,8.067,0,0,1,4.044-1.005,8.92,8.92,0,0,1,1.753.171,9.748,9.748,0,0,1,1.669.492,11,11,0,0,1,3.144,2.1l.236.236-1.541,1.476-.214-.236a7.61,7.61,0,0,0-2.438-1.647,6.312,6.312,0,0,0-2.567-.556,6.1,6.1,0,0,0-2.931.748,5.285,5.285,0,0,0-2.16,2.054,5.192,5.192,0,0,0-.77,2.717,5.306,5.306,0,0,0,.791,2.8,5.5,5.5,0,0,0,2.182,2.1,6.323,6.323,0,0,0,3.08.771,5.239,5.239,0,0,0,3.423-1.134,4.446,4.446,0,0,0,.61-.6,5.165,5.165,0,0,0,.481-.685,4.827,4.827,0,0,0,.47-1.262h-4.342v-1.989Z"/>
        <path id="Path_37" data-name="Path 37" d="M2429.751,2039.864h2.011v14.461h-.771l-8.663-9.925v9.925h-2.075v-14.461h.77l8.728,10.054Z"/>
        <path id="Path_38" data-name="Path 38" d="M2442.266,2039.864h2.331l-4.62,7.615v6.845h-2.011v-6.845l-4.728-7.615h2.353l3.359,5.412Z"/>
      </g>
    </g>
  </g>
</svg>
