<svg xmlns="http://www.w3.org/2000/svg" width="85.264" height="68.705" viewBox="0 0 85.264 68.705">
  <g id="Group_4" data-name="Group 4" transform="translate(-2351.824 -1704.493)">
    <g id="Group_2" data-name="Group 2">
      <path id="Path_5" data-name="Path 5" d="M2374.994,1707.073l0-.007h0Z" fill="#fff"/>
      <path id="Path_6" data-name="Path 6" d="M2415.952,1729.351v0h0a21.689,21.689,0,0,0-7.254-16.1,20.532,20.532,0,0,0-13.792-4.876,23.548,23.548,0,0,0-7.918,1.338,16.2,16.2,0,0,0-4.6,2.5c0-.036,0-.072,0-.108v-.022a10.7,10.7,0,0,0-.323-2.634h0a7.165,7.165,0,0,0-1.97-3.284h0a7.294,7.294,0,0,0-1.413-1.1h0a3.768,3.768,0,0,0-1.488-.539l-.25-.025-.025,0-.224.159h0a5.4,5.4,0,0,0-1.7,2.413h0a8.362,8.362,0,0,0-.6,2.727h0v.085l0,.066h0v.01h0a9.5,9.5,0,0,0,1.325,4.3h0c.2.395.375.7.511.923a11.076,11.076,0,0,1-.916,1.107h0a5.364,5.364,0,0,0-.47.568,1.743,1.743,0,0,0-.31.778h0c-.544,4.484-1,8.958-1.545,13.424h0v0h0v0h0a3.66,3.66,0,0,0-.027.444,3.1,3.1,0,0,0,.081.732h0a1.819,1.819,0,0,0,.341.728h0a1.131,1.131,0,0,0,.495.339h0a2.156,2.156,0,0,0,.579.109c.162.011.3.012.37.016.323.018.651.035.984.035h.016a4.761,4.761,0,0,0,2.581-.64h0c.037-.023.068-.054.1-.078a14.3,14.3,0,0,0-.21,2.4v0h0v0h0a14.379,14.379,0,0,0,.173,2.223,14.636,14.636,0,0,0,4.083,8.086l-.005.005.014.013h0l.044.042.145.143.047.047h0l0,0,.01-.01a17.417,17.417,0,0,0,12.2,4.436h.033a22.351,22.351,0,0,0,9.526-2.211,18.968,18.968,0,0,0,7.784-6.669,21.838,21.838,0,0,0,3.593-11.911h0Zm-32.278,15.159a13.206,13.206,0,0,1-3.744-7.348,13.032,13.032,0,0,1-.155-2,12.678,12.678,0,0,1,2.467-7.539h0a14.326,14.326,0,0,1,11.094-5.551h.026a11.7,11.7,0,0,1,6.421,1.89,11.441,11.441,0,0,0-2.6-.3h-.007a12.081,12.081,0,0,0-8.434,3.532,11.8,11.8,0,0,0-3.6,8.374h0v.009a12.378,12.378,0,0,0,2.775,7.623,21.685,21.685,0,0,0,6.676,5.477A15.75,15.75,0,0,1,2383.674,1744.51Zm13.844,4a22.219,22.219,0,0,1-8.433-6.218,10.91,10.91,0,0,1-2.467-6.731v0a10.335,10.335,0,0,1,3.163-7.323,10.61,10.61,0,0,1,7.4-3.109h0a10.643,10.643,0,0,1,5.89,1.843l1.182,1.456.046-1.929.1,0-.1-.1.005-.042h0a3.534,3.534,0,0,1,.106-.6h0a2.216,2.216,0,0,1,.559-1.032h0a3.789,3.789,0,0,1,1.354-.709h0a5.476,5.476,0,0,1,1.554-.281h.016a1.676,1.676,0,0,1,.208.012c.011.031.023.06.034.1h0a7.092,7.092,0,0,1,.233,1.811v.023h0v.051a3.108,3.108,0,0,1-.179,1.166l0,.005a3.162,3.162,0,0,1-.578.73h0a10.985,10.985,0,0,1-1.358,1.11c-.21.148-.394.27-.524.354h0l-.152.1h0l-.048.03h0l-.4.244-.04.024.1.509.005.021-.005-.021a2.693,2.693,0,0,1,.05.536v0a4.857,4.857,0,0,1-.151,1.128c-.038.154-.076.282-.1.368l-.011.032c-.118.156-.376.5-.725.953-.719.941-1.806,2.355-2.743,3.526-.467.586-.9,1.112-1.219,1.481-.072.083-.137.155-.2.22-.407-.452-.687-.78-.863-1.023h0a2.176,2.176,0,0,1-.35-.666h0v0c-.028-.084-.079-.31-.133-.58h0c-.083-.41-.184-.948-.32-1.494a7.471,7.471,0,0,0-.561-1.594h0a4.8,4.8,0,0,0-1.155-1.518,2.09,2.09,0,0,0-1.307-.511h-.006a1.636,1.636,0,0,0-.762.193l-.005-.008-.057.032-.005,0,0,0-.057.033,0,0a3.9,3.9,0,0,0-1.518,1.687,5.657,5.657,0,0,0-.525,2.465,9.494,9.494,0,0,0,3.486,6.952,16.974,16.974,0,0,0,9.2,3.749c-.4.226-.8.443-1.217.642A21.227,21.227,0,0,1,2397.518,1748.514Zm9.615-3.831c-4.85-.276-8.137-1.745-10.212-3.564a8.039,8.039,0,0,1-2.986-5.841v-.009a4.2,4.2,0,0,1,.379-1.821,2.415,2.415,0,0,1,.975-1.086l.11-.028a.641.641,0,0,1,.378.181,3.381,3.381,0,0,1,.781,1.059h0a7.662,7.662,0,0,1,.551,1.762h0c.072.329.134.65.191.933a7.42,7.42,0,0,0,.173.735l.128.414v-.1a3.9,3.9,0,0,0,.433.773h0a16.507,16.507,0,0,0,1.124,1.326h0a1.441,1.441,0,0,0,1.034.452h.015a.8.8,0,0,0,.3-.06h0a.989.989,0,0,0,.225-.133h0a4.621,4.621,0,0,0,.541-.543h0c.718-.809,1.94-2.361,3-3.729s1.923-2.513,1.941-2.537h0l.057-.076.006-.007.038-.1v-.005a6.59,6.59,0,0,0,.2-.654,6.4,6.4,0,0,0,.193-1.483h0c0-.1-.007-.208-.014-.313.238-.158.558-.379.9-.641a10.935,10.935,0,0,0,1.052-.906h0a4.489,4.489,0,0,0,.854-1.112l0-.007v-.006a4.4,4.4,0,0,0,.333-1.871h0a9.144,9.144,0,0,0-.178-1.789h0a4.656,4.656,0,0,0-.2-.72h0a1.92,1.92,0,0,0-.156-.319h0a1.035,1.035,0,0,0-.332-.343h0a2.057,2.057,0,0,0-1.077-.241h0a6.893,6.893,0,0,0-2.018.354h0a5.121,5.121,0,0,0-1.913,1.041h0a3.377,3.377,0,0,0-.79,1.2,13.414,13.414,0,0,0-9.779-4.266h-.027a15.772,15.772,0,0,0-12.306,6.151,14.123,14.123,0,0,0-1.3,2.162c-.235.358-.629.953-1.045,1.5-.208.276-.421.54-.615.749h0a2.617,2.617,0,0,1-.453.411h0a3.32,3.32,0,0,1-1.829.422c-.281,0-.582-.015-.9-.033-.159-.008-.314-.009-.425-.022-.005-.016-.01-.028-.015-.047h0a1.724,1.724,0,0,1-.04-.381h0v-.006a2.234,2.234,0,0,1,.016-.266h0v0h0l.005-.043h0c.542-4.47,1-8.931,1.54-13.383,0-.018,0-.033.065-.129h0c.087-.133.317-.374.617-.709l.015-.016-.014.016a10.548,10.548,0,0,0,1.058-1.391l.247-.389.024-.038-.261-.352.034-.025-.082-.041a9.163,9.163,0,0,1-.665-1.147h0a8.169,8.169,0,0,1-1.167-3.625v-.052h0v-.019a6.911,6.911,0,0,1,.5-2.287h0a4.637,4.637,0,0,1,.953-1.561,2.916,2.916,0,0,1,.618.281h0a6.378,6.378,0,0,1,1.653,1.467h0a5.234,5.234,0,0,1,1.043,1.991h0a9.2,9.2,0,0,1,.284,2.317v.007c0,.508-.03,1.072-.045,1.812l-.039,1.964,1.32-1.456a13.252,13.252,0,0,1,5.335-3.335,22.118,22.118,0,0,1,7.418-1.25h0a19.068,19.068,0,0,1,12.8,4.5,20.051,20.051,0,0,1,3.412,26.13A16.423,16.423,0,0,1,2407.133,1744.683Z" fill="#fff"/>
      <path id="Path_7" data-name="Path 7" d="M2379.916,1718.978l-.065.011-.056.007h0a7.384,7.384,0,0,0-.882.114,2.03,2.03,0,0,0-1.143.729h0a2.008,2.008,0,0,0-.481,1.233.873.873,0,0,0,.03.244l0,0,.047.1.005.011.062.06.012.011.117.036.022.006.148-.059.018-.007.031-.042.049.024-.038-.04.021-.029,0-.005,0,0a3.167,3.167,0,0,1,.866-.949h0c.384-.312.842-.639,1.292-1.008l.012.015,0-.017h0v0l.043-.034.641-.532-.756.125Z" fill="#fff"/>
      <path id="Path_8" data-name="Path 8" d="M2402.261,1730.874a1.51,1.51,0,0,1-.061.459h0l-.011.07.051.127.128.052.119-.034a.907.907,0,0,0,.3-.328,1.561,1.561,0,0,0,.206-.66l.007-.153a1.462,1.462,0,0,0-.26-.84c-.142-.209-.3-.362-.4-.488l-.35-.473.064.585C2402.13,1729.821,2402.262,1730.412,2402.261,1730.874Z" fill="#fff"/>
    </g>
    <g id="Group_3" data-name="Group 3">
      <path id="Path_9" data-name="Path 9" d="M2359.952,1766.887a4.082,4.082,0,0,1,.706,2.247,3.861,3.861,0,0,1-1.241,2.844,4.152,4.152,0,0,1-2.994,1.2,4.47,4.47,0,0,1-2.46-.727,6.32,6.32,0,0,1-1.99-2.374l-.149-.257,1.711-1.048.172.3a5.21,5.21,0,0,0,1.261,1.626,2.1,2.1,0,0,0,1.326.492,2.469,2.469,0,0,0,1.155-.278,2.005,2.005,0,0,0,.793-.749,1.932,1.932,0,0,0-.129-2.182,10.372,10.372,0,0,0-2.289-2.139,12.4,12.4,0,0,1-2.225-1.968,3.719,3.719,0,0,1-.791-2.289,3.488,3.488,0,0,1,.47-1.818,3.147,3.147,0,0,1,.578-.727,3.838,3.838,0,0,1,.77-.557,3.653,3.653,0,0,1,1.861-.47,3.7,3.7,0,0,1,1.968.535,6.076,6.076,0,0,1,1.9,1.861l.193.256-1.627,1.241-.213-.257a5.661,5.661,0,0,0-1.219-1.283,2.028,2.028,0,0,0-1.049-.278,1.538,1.538,0,0,0-1.134.406,1.37,1.37,0,0,0-.448,1.027,1.947,1.947,0,0,0,.171.749,2.551,2.551,0,0,0,.62.813,3.182,3.182,0,0,0,.449.385q.364.278,1.3.962A10.52,10.52,0,0,1,2359.952,1766.887Z" fill="#fff"/>
      <path id="Path_10" data-name="Path 10" d="M2368.531,1758.48l6.759,14.461h-2.2l-2.182-4.556h-5.54l-2.161,4.556h-2.246l6.824-14.461Zm1.476,7.937-1.862-3.936-1.861,3.936Z" fill="#fff"/>
      <path id="Path_11" data-name="Path 11" d="M2384.745,1758.523h2.2l-6.31,14.46h-.706l-6.226-14.46h2.2l4.386,10.182Z" fill="#fff"/>
      <rect id="Rectangle_1" data-name="Rectangle 1" width="2.033" height="14.46" transform="translate(2389.451 1758.523)" fill="#fff"/>
      <path id="Path_12" data-name="Path 12" d="M2409.665,1765.582l-.021.321a7.2,7.2,0,0,1-1.989,5.327,7.111,7.111,0,0,1-5.262,1.968,8.948,8.948,0,0,1-3.572-.664,7.892,7.892,0,0,1-2.76-2.053,7.29,7.29,0,0,1-1.8-4.856,7.478,7.478,0,0,1,1.049-3.829,7.387,7.387,0,0,1,2.823-2.759,8.061,8.061,0,0,1,4.043-1.006,8.859,8.859,0,0,1,1.754.172,9.683,9.683,0,0,1,1.669.492,10.994,10.994,0,0,1,3.144,2.1l.235.235-1.54,1.476-.214-.235a7.615,7.615,0,0,0-2.438-1.647,6.312,6.312,0,0,0-2.567-.556,6.1,6.1,0,0,0-2.931.748,5.264,5.264,0,0,0-2.16,2.054,5.188,5.188,0,0,0-.771,2.716,5.307,5.307,0,0,0,.792,2.8,5.5,5.5,0,0,0,2.181,2.1,6.338,6.338,0,0,0,3.081.77,5.24,5.24,0,0,0,3.422-1.133,4.5,4.5,0,0,0,.611-.6,5.241,5.241,0,0,0,.481-.685,4.839,4.839,0,0,0,.47-1.262h-4.342v-1.99Z" fill="#fff"/>
      <path id="Path_13" data-name="Path 13" d="M2422.243,1758.523h2.011v14.46h-.771l-8.663-9.925v9.925h-2.076v-14.46h.771l8.728,10.054Z" fill="#fff"/>
      <path id="Path_14" data-name="Path 14" d="M2434.757,1758.523h2.331l-4.62,7.615v6.845h-2.011v-6.845l-4.728-7.615h2.353l3.359,5.412Z" fill="#fff"/>
    </g>
  </g>
</svg>
