<svg id="Group_8" data-name="Group 8" xmlns="http://www.w3.org/2000/svg" width="19.269" height="15.414" viewBox="0 0 19.269 15.414">
  <path id="Path_24" data-name="Path 24" d="M858.092,48.2a7.985,7.985,0,0,1-2.511.945,3.972,3.972,0,0,0-2.885-1.229,3.9,3.9,0,0,0-3.851,4.778,11.283,11.283,0,0,1-8.147-4.066,3.826,3.826,0,0,0-.536,1.957,3.874,3.874,0,0,0,1.759,3.238,3.99,3.99,0,0,1-1.791-.487v.049A3.911,3.911,0,0,0,843.3,57.2a4.006,4.006,0,0,1-1.042.137,4.06,4.06,0,0,1-.744-.07,3.952,3.952,0,0,0,3.693,2.7,8.016,8.016,0,0,1-4.911,1.665,8.3,8.3,0,0,1-.943-.054,11.331,11.331,0,0,0,6.06,1.748,11.077,11.077,0,0,0,11.247-11.071c0-.169,0-.337-.01-.5a7.967,7.967,0,0,0,1.972-2.015,7.982,7.982,0,0,1-2.271.612A3.908,3.908,0,0,0,858.092,48.2Z" transform="translate(-839.355 -47.914)"/>
</svg>
